<mxfile host="app.diagrams.net" modified="2023-12-17T20:04:23.187Z" agent="Mozilla/5.0 (Windows NT 10.0; Win64; x64) AppleWebKit/537.36 (KHTML, like Gecko) Chrome/118.0.5993.771 YaBrowser/23.11.2.771 Yowser/2.5 Safari/537.36" etag="U8260jE-5VtT__vAxg4Y" version="22.1.11" type="github">
  <diagram name="Page-1" id="c37626ed-c26b-45fb-9056-f9ebc6bb27b6">
    <mxGraphModel dx="2376" dy="1403" grid="1" gridSize="10" guides="1" tooltips="1" connect="1" arrows="1" fold="1" page="1" pageScale="1" pageWidth="1100" pageHeight="850" background="none" math="0" shadow="0">
      <root>
        <mxCell id="0" />
        <mxCell id="1" parent="0" />
        <mxCell id="1c7a67bf8fd3230f-82" value="&lt;font style=&quot;font-size: 40px;&quot;&gt;Новосибирск&lt;/font&gt;" style="whiteSpace=wrap;html=1;rounded=0;shadow=0;comic=0;strokeWidth=1;fontFamily=Verdana;fontSize=14;fillColor=#f5f5f5;strokeColor=none;fontStyle=1;verticalAlign=top;" parent="1" vertex="1">
          <mxGeometry x="3090" y="580" width="1300" height="520" as="geometry" />
        </mxCell>
        <mxCell id="1c7a67bf8fd3230f-81" value="&lt;font style=&quot;font-size: 40px;&quot;&gt;Тверь&lt;/font&gt;" style="whiteSpace=wrap;html=1;rounded=0;shadow=0;comic=0;strokeWidth=1;fontFamily=Verdana;fontSize=14;fillColor=#f5f5f5;strokeColor=none;fontStyle=1;verticalAlign=top;" parent="1" vertex="1">
          <mxGeometry x="-90" y="-610" width="950" height="520" as="geometry" />
        </mxCell>
        <mxCell id="1c7a67bf8fd3230f-80" value="&lt;font style=&quot;font-size: 40px;&quot;&gt;Брянск&lt;/font&gt;" style="whiteSpace=wrap;html=1;rounded=0;shadow=0;comic=0;strokeWidth=1;fontFamily=Verdana;fontSize=14;fillColor=#f5f5f5;strokeColor=none;fontStyle=1;verticalAlign=top;" parent="1" vertex="1">
          <mxGeometry x="-850" y="700" width="1084" height="610" as="geometry" />
        </mxCell>
        <mxCell id="6GM8IYFVtitLIUlGIT6I-3" value="&lt;font style=&quot;font-size: 40px;&quot;&gt;Москва&lt;/font&gt;" style="whiteSpace=wrap;html=1;rounded=0;shadow=0;comic=0;strokeWidth=1;fontFamily=Verdana;fontSize=14;fillColor=#f5f5f5;strokeColor=none;verticalAlign=top;fontStyle=1" parent="1" vertex="1">
          <mxGeometry x="770" y="110" width="1820" height="1440" as="geometry" />
        </mxCell>
        <mxCell id="6GM8IYFVtitLIUlGIT6I-10" value="" style="shape=mxgraph.cisco.routers.router;sketch=0;html=1;pointerEvents=1;dashed=0;fillColor=#1ba1e2;strokeColor=#006EAF;strokeWidth=2;verticalLabelPosition=bottom;verticalAlign=top;align=center;outlineConnect=0;fontColor=#ffffff;" parent="1" vertex="1">
          <mxGeometry x="1050" y="220" width="130" height="80" as="geometry" />
        </mxCell>
        <mxCell id="6GM8IYFVtitLIUlGIT6I-11" value="" style="shape=mxgraph.cisco.routers.router;sketch=0;html=1;pointerEvents=1;dashed=0;fillColor=#1ba1e2;strokeColor=#006EAF;strokeWidth=2;verticalLabelPosition=bottom;verticalAlign=top;align=center;outlineConnect=0;fontColor=#ffffff;" parent="1" vertex="1">
          <mxGeometry x="1890" y="450" width="130" height="80" as="geometry" />
        </mxCell>
        <mxCell id="6GM8IYFVtitLIUlGIT6I-12" value="" style="shape=mxgraph.cisco.routers.router;sketch=0;html=1;pointerEvents=1;dashed=0;fillColor=#1ba1e2;strokeColor=#006EAF;strokeWidth=2;verticalLabelPosition=bottom;verticalAlign=top;align=center;outlineConnect=0;fontColor=#ffffff;" parent="1" vertex="1">
          <mxGeometry x="1240" y="1090" width="130" height="80" as="geometry" />
        </mxCell>
        <mxCell id="6GM8IYFVtitLIUlGIT6I-13" value="" style="shape=mxgraph.cisco.routers.router;sketch=0;html=1;pointerEvents=1;dashed=0;fillColor=#1ba1e2;strokeColor=#006EAF;strokeWidth=2;verticalLabelPosition=bottom;verticalAlign=top;align=center;outlineConnect=0;fontColor=#ffffff;" parent="1" vertex="1">
          <mxGeometry x="2360" y="870" width="130" height="80" as="geometry" />
        </mxCell>
        <mxCell id="6GM8IYFVtitLIUlGIT6I-14" value="" style="shape=mxgraph.cisco.routers.router;sketch=0;html=1;pointerEvents=1;dashed=0;fillColor=#1ba1e2;strokeColor=#006EAF;strokeWidth=2;verticalLabelPosition=bottom;verticalAlign=top;align=center;outlineConnect=0;fontColor=#ffffff;" parent="1" vertex="1">
          <mxGeometry x="90" y="980" width="130" height="80" as="geometry" />
        </mxCell>
        <mxCell id="6GM8IYFVtitLIUlGIT6I-15" value="" style="shape=mxgraph.cisco.routers.router;sketch=0;html=1;pointerEvents=1;dashed=0;fillColor=#1ba1e2;strokeColor=#006EAF;strokeWidth=2;verticalLabelPosition=bottom;verticalAlign=top;align=center;outlineConnect=0;fontColor=#ffffff;" parent="1" vertex="1">
          <mxGeometry x="80" y="1130" width="130" height="80" as="geometry" />
        </mxCell>
        <mxCell id="6GM8IYFVtitLIUlGIT6I-16" value="" style="shape=mxgraph.cisco.routers.router;sketch=0;html=1;pointerEvents=1;dashed=0;fillColor=#1ba1e2;strokeColor=#006EAF;strokeWidth=2;verticalLabelPosition=bottom;verticalAlign=top;align=center;outlineConnect=0;fontColor=#ffffff;" parent="1" vertex="1">
          <mxGeometry x="530" y="-210" width="130" height="80" as="geometry" />
        </mxCell>
        <mxCell id="6GM8IYFVtitLIUlGIT6I-17" value="" style="shape=mxgraph.cisco.routers.router;sketch=0;html=1;pointerEvents=1;dashed=0;fillColor=#1ba1e2;strokeColor=#006EAF;strokeWidth=2;verticalLabelPosition=bottom;verticalAlign=top;align=center;outlineConnect=0;fontColor=#ffffff;" parent="1" vertex="1">
          <mxGeometry x="3200" y="880" width="130" height="80" as="geometry" />
        </mxCell>
        <mxCell id="1c7a67bf8fd3230f-73" style="edgeStyle=none;html=1;labelBackgroundColor=none;startFill=0;endArrow=none;endFill=0;strokeWidth=2;fontFamily=Verdana;fontSize=12;exitX=0.88;exitY=0.9;exitDx=0;exitDy=0;exitPerimeter=0;entryX=0.5;entryY=0;entryDx=0;entryDy=0;entryPerimeter=0;fillColor=#1ba1e2;strokeColor=#006EAF;" parent="1" source="6GM8IYFVtitLIUlGIT6I-11" target="6GM8IYFVtitLIUlGIT6I-13" edge="1">
          <mxGeometry relative="1" as="geometry">
            <mxPoint x="2039.996148867314" y="630" as="sourcePoint" />
            <mxPoint x="2086.1838511326864" y="853" as="targetPoint" />
          </mxGeometry>
        </mxCell>
        <mxCell id="6GM8IYFVtitLIUlGIT6I-19" style="edgeStyle=none;html=1;labelBackgroundColor=none;startFill=0;endArrow=none;endFill=0;strokeWidth=2;fontFamily=Verdana;fontSize=12;entryX=1;entryY=0.5;entryDx=0;entryDy=0;entryPerimeter=0;fillColor=#1ba1e2;strokeColor=#006EAF;" parent="1" source="6GM8IYFVtitLIUlGIT6I-12" target="6GM8IYFVtitLIUlGIT6I-15" edge="1">
          <mxGeometry relative="1" as="geometry">
            <mxPoint x="2495" y="1042.4285714285716" as="sourcePoint" />
            <mxPoint x="2010" y="680" as="targetPoint" />
          </mxGeometry>
        </mxCell>
        <mxCell id="6GM8IYFVtitLIUlGIT6I-20" style="edgeStyle=none;html=1;labelBackgroundColor=none;startFill=0;endArrow=none;endFill=0;strokeWidth=2;fontFamily=Verdana;fontSize=12;entryX=1;entryY=0.5;entryDx=0;entryDy=0;entryPerimeter=0;fillColor=#1ba1e2;strokeColor=#006EAF;" parent="1" source="6GM8IYFVtitLIUlGIT6I-13" target="6GM8IYFVtitLIUlGIT6I-12" edge="1">
          <mxGeometry relative="1" as="geometry">
            <mxPoint x="2505" y="1052.4285714285716" as="sourcePoint" />
            <mxPoint x="2020" y="690" as="targetPoint" />
          </mxGeometry>
        </mxCell>
        <mxCell id="6GM8IYFVtitLIUlGIT6I-22" style="edgeStyle=none;html=1;labelBackgroundColor=none;startFill=0;endArrow=none;endFill=0;strokeWidth=2;fontFamily=Verdana;fontSize=12;entryX=1;entryY=0.5;entryDx=0;entryDy=0;entryPerimeter=0;exitX=0;exitY=0.5;exitDx=0;exitDy=0;exitPerimeter=0;fillColor=#1ba1e2;strokeColor=#006EAF;" parent="1" source="6GM8IYFVtitLIUlGIT6I-11" target="6GM8IYFVtitLIUlGIT6I-10" edge="1">
          <mxGeometry relative="1" as="geometry">
            <mxPoint x="2525" y="1072.4285714285716" as="sourcePoint" />
            <mxPoint x="2040" y="710" as="targetPoint" />
          </mxGeometry>
        </mxCell>
        <mxCell id="6GM8IYFVtitLIUlGIT6I-23" style="edgeStyle=none;html=1;labelBackgroundColor=none;startFill=0;endArrow=none;endFill=0;strokeWidth=2;fontFamily=Verdana;fontSize=12;entryX=1;entryY=0.5;entryDx=0;entryDy=0;entryPerimeter=0;exitX=0;exitY=0.5;exitDx=0;exitDy=0;exitPerimeter=0;fillColor=#1ba1e2;strokeColor=#006EAF;" parent="1" source="6GM8IYFVtitLIUlGIT6I-17" target="6GM8IYFVtitLIUlGIT6I-13" edge="1">
          <mxGeometry relative="1" as="geometry">
            <mxPoint x="2535" y="1082.4285714285716" as="sourcePoint" />
            <mxPoint x="2050" y="720" as="targetPoint" />
          </mxGeometry>
        </mxCell>
        <mxCell id="6GM8IYFVtitLIUlGIT6I-24" style="edgeStyle=none;html=1;labelBackgroundColor=none;startFill=0;endArrow=none;endFill=0;strokeWidth=2;fontFamily=Verdana;fontSize=12;entryX=0.5;entryY=1;entryDx=0;entryDy=0;entryPerimeter=0;exitX=0.12;exitY=0.1;exitDx=0;exitDy=0;exitPerimeter=0;fillColor=#1ba1e2;strokeColor=#006EAF;" parent="1" source="6GM8IYFVtitLIUlGIT6I-10" target="6GM8IYFVtitLIUlGIT6I-16" edge="1">
          <mxGeometry relative="1" as="geometry">
            <mxPoint x="2545" y="1092.4285714285716" as="sourcePoint" />
            <mxPoint x="2060" y="730" as="targetPoint" />
          </mxGeometry>
        </mxCell>
        <mxCell id="6GM8IYFVtitLIUlGIT6I-25" value="" style="shape=mxgraph.cisco.routers.router;sketch=0;html=1;pointerEvents=1;dashed=0;fillColor=#1ba1e2;strokeColor=#006EAF;strokeWidth=2;verticalLabelPosition=bottom;verticalAlign=top;align=center;outlineConnect=0;fontColor=#ffffff;" parent="1" vertex="1">
          <mxGeometry x="820" y="585" width="130" height="80" as="geometry" />
        </mxCell>
        <mxCell id="6GM8IYFVtitLIUlGIT6I-26" style="edgeStyle=none;html=1;labelBackgroundColor=none;startFill=0;endArrow=none;endFill=0;strokeWidth=2;fontFamily=Verdana;fontSize=12;entryX=0.625;entryY=0.2;entryDx=0;entryDy=0;entryPerimeter=0;fillColor=#1ba1e2;strokeColor=#006EAF;" parent="1" source="6GM8IYFVtitLIUlGIT6I-25" target="6GM8IYFVtitLIUlGIT6I-63" edge="1">
          <mxGeometry relative="1" as="geometry">
            <mxPoint x="1100" y="778" as="sourcePoint" />
            <mxPoint x="450" y="1070" as="targetPoint" />
          </mxGeometry>
        </mxCell>
        <mxCell id="6GM8IYFVtitLIUlGIT6I-27" style="edgeStyle=none;html=1;labelBackgroundColor=none;startFill=0;endArrow=none;endFill=0;strokeWidth=2;fontFamily=Verdana;fontSize=12;exitX=0.12;exitY=0.1;exitDx=0;exitDy=0;exitPerimeter=0;entryX=0.5;entryY=1;entryDx=0;entryDy=0;entryPerimeter=0;fillColor=#1ba1e2;strokeColor=#006EAF;" parent="1" source="6GM8IYFVtitLIUlGIT6I-12" target="6GM8IYFVtitLIUlGIT6I-25" edge="1">
          <mxGeometry relative="1" as="geometry">
            <mxPoint x="1110" y="788" as="sourcePoint" />
            <mxPoint x="630" y="820" as="targetPoint" />
          </mxGeometry>
        </mxCell>
        <mxCell id="6GM8IYFVtitLIUlGIT6I-28" style="edgeStyle=none;html=1;labelBackgroundColor=none;startFill=0;endArrow=none;endFill=0;strokeWidth=2;fontFamily=Verdana;fontSize=12;entryX=0.5;entryY=0;entryDx=0;entryDy=0;entryPerimeter=0;exitX=0.12;exitY=0.9;exitDx=0;exitDy=0;exitPerimeter=0;fillColor=#1ba1e2;strokeColor=#006EAF;" parent="1" source="6GM8IYFVtitLIUlGIT6I-10" target="6GM8IYFVtitLIUlGIT6I-25" edge="1">
          <mxGeometry relative="1" as="geometry">
            <mxPoint x="1120" y="798" as="sourcePoint" />
            <mxPoint x="470" y="1090" as="targetPoint" />
          </mxGeometry>
        </mxCell>
        <mxCell id="6GM8IYFVtitLIUlGIT6I-31" value="" style="shape=mxgraph.cisco.routers.router;sketch=0;html=1;pointerEvents=1;dashed=0;fillColor=#e51400;strokeColor=#B20000;strokeWidth=2;verticalLabelPosition=bottom;verticalAlign=top;align=center;outlineConnect=0;fontColor=#ffffff;" parent="1" vertex="1">
          <mxGeometry x="1940" y="1080" width="130" height="80" as="geometry" />
        </mxCell>
        <mxCell id="6GM8IYFVtitLIUlGIT6I-32" value="" style="shape=mxgraph.cisco.routers.router;sketch=0;html=1;pointerEvents=1;dashed=0;fillColor=#e51400;strokeColor=#B20000;strokeWidth=2;verticalLabelPosition=bottom;verticalAlign=top;align=center;outlineConnect=0;fontColor=#ffffff;" parent="1" vertex="1">
          <mxGeometry x="2360" y="500" width="130" height="80" as="geometry" />
        </mxCell>
        <mxCell id="6GM8IYFVtitLIUlGIT6I-33" value="" style="shape=mxgraph.cisco.routers.router;sketch=0;html=1;pointerEvents=1;dashed=0;fillColor=#e51400;strokeColor=#B20000;strokeWidth=2;verticalLabelPosition=bottom;verticalAlign=top;align=center;outlineConnect=0;fontColor=#ffffff;" parent="1" vertex="1">
          <mxGeometry x="3150" y="680" width="130" height="80" as="geometry" />
        </mxCell>
        <mxCell id="6GM8IYFVtitLIUlGIT6I-34" value="" style="shape=mxgraph.cisco.routers.router;sketch=0;html=1;pointerEvents=1;dashed=0;fillColor=#e51400;strokeColor=#B20000;strokeWidth=2;verticalLabelPosition=bottom;verticalAlign=top;align=center;outlineConnect=0;fontColor=#ffffff;" parent="1" vertex="1">
          <mxGeometry x="1630" y="200" width="130" height="80" as="geometry" />
        </mxCell>
        <mxCell id="6GM8IYFVtitLIUlGIT6I-35" value="" style="shape=mxgraph.cisco.routers.router;sketch=0;html=1;pointerEvents=1;dashed=0;fillColor=#e51400;strokeColor=#B20000;strokeWidth=2;verticalLabelPosition=bottom;verticalAlign=top;align=center;outlineConnect=0;fontColor=#ffffff;" parent="1" vertex="1">
          <mxGeometry x="720" y="-293" width="130" height="80" as="geometry" />
        </mxCell>
        <mxCell id="6GM8IYFVtitLIUlGIT6I-36" value="" style="shape=mxgraph.cisco.routers.router;sketch=0;html=1;pointerEvents=1;dashed=0;fillColor=#e51400;strokeColor=#B20000;strokeWidth=2;verticalLabelPosition=bottom;verticalAlign=top;align=center;outlineConnect=0;fontColor=#ffffff;" parent="1" vertex="1">
          <mxGeometry x="1020" y="665" width="130" height="80" as="geometry" />
        </mxCell>
        <mxCell id="6GM8IYFVtitLIUlGIT6I-37" value="" style="shape=mxgraph.cisco.routers.router;sketch=0;html=1;pointerEvents=1;dashed=0;fillColor=#e51400;strokeColor=#B20000;strokeWidth=2;verticalLabelPosition=bottom;verticalAlign=top;align=center;outlineConnect=0;fontColor=#ffffff;" parent="1" vertex="1">
          <mxGeometry x="30" y="820" width="130" height="80" as="geometry" />
        </mxCell>
        <mxCell id="6GM8IYFVtitLIUlGIT6I-38" style="edgeStyle=none;html=1;labelBackgroundColor=none;startFill=0;endArrow=none;endFill=0;strokeWidth=2;fontFamily=Verdana;fontSize=12;entryX=1;entryY=0.5;entryDx=0;entryDy=0;entryPerimeter=0;fillColor=#e51400;strokeColor=#B20000;" parent="1" source="6GM8IYFVtitLIUlGIT6I-36" target="6GM8IYFVtitLIUlGIT6I-37" edge="1">
          <mxGeometry relative="1" as="geometry">
            <mxPoint x="1216" y="742" as="sourcePoint" />
            <mxPoint x="450" y="1070" as="targetPoint" />
          </mxGeometry>
        </mxCell>
        <mxCell id="6GM8IYFVtitLIUlGIT6I-39" style="edgeStyle=none;html=1;labelBackgroundColor=none;startFill=0;endArrow=none;endFill=0;strokeWidth=2;fontFamily=Verdana;fontSize=12;entryX=0.88;entryY=0.9;entryDx=0;entryDy=0;entryPerimeter=0;exitX=0;exitY=0.5;exitDx=0;exitDy=0;exitPerimeter=0;fillColor=#e51400;strokeColor=#B20000;" parent="1" source="6GM8IYFVtitLIUlGIT6I-31" target="6GM8IYFVtitLIUlGIT6I-36" edge="1">
          <mxGeometry relative="1" as="geometry">
            <mxPoint x="1226" y="752" as="sourcePoint" />
            <mxPoint x="460" y="1080" as="targetPoint" />
          </mxGeometry>
        </mxCell>
        <mxCell id="6GM8IYFVtitLIUlGIT6I-40" style="edgeStyle=none;html=1;labelBackgroundColor=none;startFill=0;endArrow=none;endFill=0;strokeWidth=2;fontFamily=Verdana;fontSize=12;entryX=0.88;entryY=0.1;entryDx=0;entryDy=0;entryPerimeter=0;exitX=0.12;exitY=0.9;exitDx=0;exitDy=0;exitPerimeter=0;fillColor=#e51400;strokeColor=#B20000;" parent="1" source="6GM8IYFVtitLIUlGIT6I-34" target="6GM8IYFVtitLIUlGIT6I-36" edge="1">
          <mxGeometry relative="1" as="geometry">
            <mxPoint x="1236" y="762" as="sourcePoint" />
            <mxPoint x="470" y="1090" as="targetPoint" />
          </mxGeometry>
        </mxCell>
        <mxCell id="6GM8IYFVtitLIUlGIT6I-41" style="edgeStyle=none;html=1;labelBackgroundColor=none;startFill=0;endArrow=none;endFill=0;strokeWidth=2;fontFamily=Verdana;fontSize=12;entryX=0.88;entryY=0.9;entryDx=0;entryDy=0;entryPerimeter=0;exitX=0.12;exitY=0.1;exitDx=0;exitDy=0;exitPerimeter=0;fillColor=#e51400;strokeColor=#B20000;" parent="1" source="6GM8IYFVtitLIUlGIT6I-32" target="6GM8IYFVtitLIUlGIT6I-34" edge="1">
          <mxGeometry relative="1" as="geometry">
            <mxPoint x="1246" y="772" as="sourcePoint" />
            <mxPoint x="480" y="1100" as="targetPoint" />
          </mxGeometry>
        </mxCell>
        <mxCell id="6GM8IYFVtitLIUlGIT6I-42" style="edgeStyle=none;html=1;labelBackgroundColor=none;startFill=0;endArrow=none;endFill=0;strokeWidth=2;fontFamily=Verdana;fontSize=12;entryX=0.88;entryY=0.1;entryDx=0;entryDy=0;entryPerimeter=0;exitX=0.5;exitY=1;exitDx=0;exitDy=0;exitPerimeter=0;fillColor=#e51400;strokeColor=#B20000;" parent="1" source="6GM8IYFVtitLIUlGIT6I-32" target="6GM8IYFVtitLIUlGIT6I-31" edge="1">
          <mxGeometry relative="1" as="geometry">
            <mxPoint x="1256" y="782" as="sourcePoint" />
            <mxPoint x="490" y="1110" as="targetPoint" />
          </mxGeometry>
        </mxCell>
        <mxCell id="6GM8IYFVtitLIUlGIT6I-43" style="edgeStyle=none;html=1;labelBackgroundColor=none;startFill=0;endArrow=none;endFill=0;strokeWidth=2;fontFamily=Verdana;fontSize=12;exitX=0;exitY=0.5;exitDx=0;exitDy=0;exitPerimeter=0;fillColor=#e51400;strokeColor=#B20000;entryX=1;entryY=0.5;entryDx=0;entryDy=0;entryPerimeter=0;" parent="1" source="6GM8IYFVtitLIUlGIT6I-33" target="6GM8IYFVtitLIUlGIT6I-32" edge="1">
          <mxGeometry relative="1" as="geometry">
            <mxPoint x="1835" y="420" as="sourcePoint" />
            <mxPoint x="1694" y="728" as="targetPoint" />
          </mxGeometry>
        </mxCell>
        <mxCell id="6GM8IYFVtitLIUlGIT6I-44" style="edgeStyle=none;html=1;labelBackgroundColor=none;startFill=0;endArrow=none;endFill=0;strokeWidth=2;fontFamily=Verdana;fontSize=12;entryX=0.12;entryY=0.1;entryDx=0;entryDy=0;entryPerimeter=0;exitX=0.88;exitY=0.9;exitDx=0;exitDy=0;exitPerimeter=0;fillColor=#e51400;strokeColor=#B20000;" parent="1" source="6GM8IYFVtitLIUlGIT6I-35" target="6GM8IYFVtitLIUlGIT6I-34" edge="1">
          <mxGeometry relative="1" as="geometry">
            <mxPoint x="1845" y="430" as="sourcePoint" />
            <mxPoint x="1704" y="738" as="targetPoint" />
          </mxGeometry>
        </mxCell>
        <mxCell id="6GM8IYFVtitLIUlGIT6I-50" value="&lt;font style=&quot;font-size: 40px;&quot;&gt;Ростелеком&lt;/font&gt;" style="text;html=1;align=center;verticalAlign=middle;resizable=0;points=[];autosize=1;strokeColor=none;fillColor=none;" parent="1" vertex="1">
          <mxGeometry x="1706" y="1595" width="240" height="60" as="geometry" />
        </mxCell>
        <mxCell id="6GM8IYFVtitLIUlGIT6I-51" value="&lt;font style=&quot;font-size: 40px;&quot;&gt;Мобильные ТелеСистемы&lt;/font&gt;" style="text;html=1;align=center;verticalAlign=middle;resizable=0;points=[];autosize=1;strokeColor=none;fillColor=none;" parent="1" vertex="1">
          <mxGeometry x="1705" y="1674" width="510" height="60" as="geometry" />
        </mxCell>
        <mxCell id="6GM8IYFVtitLIUlGIT6I-52" style="edgeStyle=none;html=1;labelBackgroundColor=none;startFill=0;endArrow=none;endFill=0;strokeWidth=20;fontFamily=Verdana;fontSize=12;fillColor=#1ba1e2;strokeColor=#006EAF;" parent="1" edge="1">
          <mxGeometry relative="1" as="geometry">
            <mxPoint x="1690" y="1625" as="sourcePoint" />
            <mxPoint x="1530" y="1625" as="targetPoint" />
          </mxGeometry>
        </mxCell>
        <mxCell id="6GM8IYFVtitLIUlGIT6I-53" style="edgeStyle=none;html=1;labelBackgroundColor=none;startFill=0;endArrow=none;endFill=0;strokeWidth=20;fontFamily=Verdana;fontSize=12;fillColor=#e51400;strokeColor=#B20000;" parent="1" edge="1">
          <mxGeometry relative="1" as="geometry">
            <mxPoint x="1690" y="1705" as="sourcePoint" />
            <mxPoint x="1530" y="1705" as="targetPoint" />
          </mxGeometry>
        </mxCell>
        <mxCell id="6GM8IYFVtitLIUlGIT6I-54" value="" style="shape=mxgraph.cisco.routers.router;sketch=0;html=1;pointerEvents=1;dashed=0;fillColor=#647687;strokeWidth=2;verticalLabelPosition=bottom;verticalAlign=top;align=center;outlineConnect=0;strokeColor=#314354;fontColor=#ffffff;" parent="1" vertex="1">
          <mxGeometry x="-220" y="1010" width="130" height="80" as="geometry" />
        </mxCell>
        <mxCell id="6GM8IYFVtitLIUlGIT6I-55" style="edgeStyle=none;html=1;labelBackgroundColor=none;startFill=0;endArrow=none;endFill=0;strokeWidth=20;fontFamily=Verdana;fontSize=12;fillColor=#647687;strokeColor=#314354;" parent="1" edge="1">
          <mxGeometry relative="1" as="geometry">
            <mxPoint x="1690" y="1785" as="sourcePoint" />
            <mxPoint x="1530" y="1785" as="targetPoint" />
          </mxGeometry>
        </mxCell>
        <mxCell id="6GM8IYFVtitLIUlGIT6I-56" value="&lt;font style=&quot;font-size: 40px;&quot;&gt;Арендатор&lt;/font&gt;" style="text;html=1;align=center;verticalAlign=middle;resizable=0;points=[];autosize=1;strokeColor=none;fillColor=none;" parent="1" vertex="1">
          <mxGeometry x="1710" y="1754" width="220" height="60" as="geometry" />
        </mxCell>
        <mxCell id="6GM8IYFVtitLIUlGIT6I-57" value="" style="shape=mxgraph.cisco.routers.router;sketch=0;html=1;pointerEvents=1;dashed=0;fillColor=#647687;strokeWidth=2;verticalLabelPosition=bottom;verticalAlign=top;align=center;outlineConnect=0;strokeColor=#314354;fontColor=#ffffff;" parent="1" vertex="1">
          <mxGeometry x="1816" y="690" width="130" height="80" as="geometry" />
        </mxCell>
        <mxCell id="6GM8IYFVtitLIUlGIT6I-58" value="" style="shape=mxgraph.cisco.routers.router;sketch=0;html=1;pointerEvents=1;dashed=0;fillColor=#647687;strokeWidth=2;verticalLabelPosition=bottom;verticalAlign=top;align=center;outlineConnect=0;strokeColor=#314354;fontColor=#ffffff;" parent="1" vertex="1">
          <mxGeometry x="470" y="-373" width="130" height="80" as="geometry" />
        </mxCell>
        <mxCell id="6GM8IYFVtitLIUlGIT6I-59" value="" style="shape=mxgraph.cisco.routers.router;sketch=0;html=1;pointerEvents=1;dashed=0;fillColor=#647687;strokeWidth=2;verticalLabelPosition=bottom;verticalAlign=top;align=center;outlineConnect=0;strokeColor=#314354;fontColor=#ffffff;" parent="1" vertex="1">
          <mxGeometry x="3530" y="810" width="130" height="80" as="geometry" />
        </mxCell>
        <mxCell id="6GM8IYFVtitLIUlGIT6I-60" value="" style="shape=mxgraph.cisco.routers.router;sketch=0;html=1;pointerEvents=1;dashed=0;fillColor=#647687;strokeWidth=2;verticalLabelPosition=bottom;verticalAlign=top;align=center;outlineConnect=0;strokeColor=#314354;fontColor=#ffffff;" parent="1" vertex="1">
          <mxGeometry x="1380" y="750" width="130" height="80" as="geometry" />
        </mxCell>
        <mxCell id="6GM8IYFVtitLIUlGIT6I-63" value="&lt;font style=&quot;font-size: 22px;&quot;&gt;Сеть оператора&lt;br&gt;Ростелеком&lt;br&gt;&lt;/font&gt;" style="ellipse;shape=cloud;whiteSpace=wrap;html=1;" parent="1" vertex="1">
          <mxGeometry x="340" y="1020" width="390" height="190" as="geometry" />
        </mxCell>
        <mxCell id="6GM8IYFVtitLIUlGIT6I-65" value="&lt;font style=&quot;font-size: 22px;&quot;&gt;Сеть оператора&lt;br&gt;Мобильные ТелеСистемы&lt;br&gt;&lt;/font&gt;" style="ellipse;shape=cloud;whiteSpace=wrap;html=1;" parent="1" vertex="1">
          <mxGeometry x="250" y="720" width="430" height="190" as="geometry" />
        </mxCell>
        <mxCell id="6GM8IYFVtitLIUlGIT6I-67" value="&lt;font style=&quot;font-size: 22px;&quot;&gt;Сеть оператора&lt;br&gt;Ростелеком&lt;br&gt;&lt;/font&gt;" style="ellipse;shape=cloud;whiteSpace=wrap;html=1;" parent="1" vertex="1">
          <mxGeometry x="2630" y="820" width="390" height="190" as="geometry" />
        </mxCell>
        <mxCell id="6GM8IYFVtitLIUlGIT6I-68" value="&lt;font style=&quot;font-size: 22px;&quot;&gt;Сеть оператора&lt;br&gt;Мобильные ТелеСистемы&lt;br&gt;&lt;/font&gt;" style="ellipse;shape=cloud;whiteSpace=wrap;html=1;" parent="1" vertex="1">
          <mxGeometry x="2600" y="530" width="450" height="190" as="geometry" />
        </mxCell>
        <mxCell id="6GM8IYFVtitLIUlGIT6I-69" value="&lt;font style=&quot;font-size: 22px;&quot;&gt;Сеть оператора&lt;br&gt;Ростелеком&lt;br&gt;&lt;/font&gt;" style="ellipse;shape=cloud;whiteSpace=wrap;html=1;" parent="1" vertex="1">
          <mxGeometry x="580" y="-90" width="390" height="190" as="geometry" />
        </mxCell>
        <mxCell id="6GM8IYFVtitLIUlGIT6I-70" value="&lt;font style=&quot;font-size: 22px;&quot;&gt;Сеть оператора&lt;br&gt;Мобильные ТелеСистемы&lt;br&gt;&lt;/font&gt;" style="ellipse;shape=cloud;whiteSpace=wrap;html=1;" parent="1" vertex="1">
          <mxGeometry x="980" y="-130" width="440" height="190" as="geometry" />
        </mxCell>
        <mxCell id="6GM8IYFVtitLIUlGIT6I-71" style="edgeStyle=none;html=1;labelBackgroundColor=none;startFill=0;endArrow=none;endFill=0;strokeWidth=2;fontFamily=Verdana;fontSize=12;entryX=1;entryY=0.5;entryDx=0;entryDy=0;entryPerimeter=0;fillColor=#647687;strokeColor=#314354;exitX=0.12;exitY=0.1;exitDx=0;exitDy=0;exitPerimeter=0;" parent="1" source="6GM8IYFVtitLIUlGIT6I-59" target="6GM8IYFVtitLIUlGIT6I-33" edge="1">
          <mxGeometry relative="1" as="geometry">
            <mxPoint x="3360" y="1360" as="sourcePoint" />
            <mxPoint x="2160" y="1506" as="targetPoint" />
          </mxGeometry>
        </mxCell>
        <mxCell id="6GM8IYFVtitLIUlGIT6I-72" style="edgeStyle=none;html=1;labelBackgroundColor=none;startFill=0;endArrow=none;endFill=0;strokeWidth=2;fontFamily=Verdana;fontSize=12;entryX=1;entryY=0.5;entryDx=0;entryDy=0;entryPerimeter=0;fillColor=#647687;strokeColor=#314354;exitX=0.12;exitY=0.9;exitDx=0;exitDy=0;exitPerimeter=0;" parent="1" source="6GM8IYFVtitLIUlGIT6I-59" target="6GM8IYFVtitLIUlGIT6I-17" edge="1">
          <mxGeometry relative="1" as="geometry">
            <mxPoint x="3370" y="1370" as="sourcePoint" />
            <mxPoint x="2170" y="1516" as="targetPoint" />
          </mxGeometry>
        </mxCell>
        <mxCell id="6GM8IYFVtitLIUlGIT6I-73" style="edgeStyle=none;html=1;labelBackgroundColor=none;startFill=0;endArrow=none;endFill=0;strokeWidth=2;fontFamily=Verdana;fontSize=12;entryX=0.88;entryY=0.9;entryDx=0;entryDy=0;entryPerimeter=0;fillColor=#647687;strokeColor=#314354;exitX=0;exitY=0.5;exitDx=0;exitDy=0;exitPerimeter=0;" parent="1" source="6GM8IYFVtitLIUlGIT6I-15" target="6GM8IYFVtitLIUlGIT6I-54" edge="1">
          <mxGeometry relative="1" as="geometry">
            <mxPoint x="230" y="1380" as="sourcePoint" />
            <mxPoint x="2180" y="1526" as="targetPoint" />
          </mxGeometry>
        </mxCell>
        <mxCell id="6GM8IYFVtitLIUlGIT6I-74" style="edgeStyle=none;html=1;labelBackgroundColor=none;startFill=0;endArrow=none;endFill=0;strokeWidth=2;fontFamily=Verdana;fontSize=12;entryX=0.88;entryY=0.1;entryDx=0;entryDy=0;entryPerimeter=0;fillColor=#647687;strokeColor=#314354;exitX=0.12;exitY=0.9;exitDx=0;exitDy=0;exitPerimeter=0;" parent="1" source="6GM8IYFVtitLIUlGIT6I-37" target="6GM8IYFVtitLIUlGIT6I-54" edge="1">
          <mxGeometry relative="1" as="geometry">
            <mxPoint x="90" y="1180" as="sourcePoint" />
            <mxPoint x="-96" y="1092" as="targetPoint" />
          </mxGeometry>
        </mxCell>
        <mxCell id="6GM8IYFVtitLIUlGIT6I-76" style="edgeStyle=none;html=1;labelBackgroundColor=none;startFill=0;endArrow=none;endFill=0;strokeWidth=2;fontFamily=Verdana;fontSize=12;entryX=0.5;entryY=1;entryDx=0;entryDy=0;entryPerimeter=0;fillColor=#647687;strokeColor=#314354;exitX=0.12;exitY=0.1;exitDx=0;exitDy=0;exitPerimeter=0;" parent="1" source="6GM8IYFVtitLIUlGIT6I-16" target="6GM8IYFVtitLIUlGIT6I-58" edge="1">
          <mxGeometry relative="1" as="geometry">
            <mxPoint x="538" y="110" as="sourcePoint" />
            <mxPoint x="352" y="22" as="targetPoint" />
          </mxGeometry>
        </mxCell>
        <mxCell id="6GM8IYFVtitLIUlGIT6I-78" style="edgeStyle=none;html=1;labelBackgroundColor=none;startFill=0;endArrow=none;endFill=0;strokeWidth=2;fontFamily=Verdana;fontSize=12;fillColor=#647687;strokeColor=#314354;exitX=0.12;exitY=0.1;exitDx=0;exitDy=0;exitPerimeter=0;entryX=1;entryY=0.5;entryDx=0;entryDy=0;entryPerimeter=0;" parent="1" source="6GM8IYFVtitLIUlGIT6I-35" target="6GM8IYFVtitLIUlGIT6I-58" edge="1">
          <mxGeometry relative="1" as="geometry">
            <mxPoint x="540" y="-200" as="sourcePoint" />
            <mxPoint x="355" y="-370" as="targetPoint" />
          </mxGeometry>
        </mxCell>
        <mxCell id="6GM8IYFVtitLIUlGIT6I-83" value="" style="shape=mxgraph.cisco.controllers_and_modules.3174_(desktop)_cluster_controller;sketch=0;html=1;pointerEvents=1;dashed=0;fillColor=#647687;strokeColor=#314354;strokeWidth=2;verticalLabelPosition=bottom;verticalAlign=top;align=center;outlineConnect=0;fontColor=#ffffff;" parent="1" vertex="1">
          <mxGeometry x="-710" y="830" width="150" height="60" as="geometry" />
        </mxCell>
        <mxCell id="6GM8IYFVtitLIUlGIT6I-85" value="" style="shape=mxgraph.cisco.security.firewall;sketch=0;html=1;pointerEvents=1;dashed=0;fillColor=#647687;strokeColor=#314354;strokeWidth=2;verticalLabelPosition=bottom;verticalAlign=top;align=center;outlineConnect=0;fontColor=#ffffff;" parent="1" vertex="1">
          <mxGeometry x="-420" y="973" width="70" height="154" as="geometry" />
        </mxCell>
        <mxCell id="6GM8IYFVtitLIUlGIT6I-86" value="" style="shape=mxgraph.cisco.switches.workgroup_switch;sketch=0;html=1;pointerEvents=1;dashed=0;fillColor=#647687;strokeColor=#314354;strokeWidth=2;verticalLabelPosition=bottom;verticalAlign=top;align=center;outlineConnect=0;fontColor=#ffffff;" parent="1" vertex="1">
          <mxGeometry x="-720" y="1020" width="170" height="80" as="geometry" />
        </mxCell>
        <mxCell id="6GM8IYFVtitLIUlGIT6I-87" style="edgeStyle=none;html=1;labelBackgroundColor=none;startFill=0;endArrow=none;endFill=0;strokeWidth=2;fontFamily=Verdana;fontSize=12;entryX=1;entryY=0.5;entryDx=0;entryDy=0;entryPerimeter=0;fillColor=#647687;strokeColor=#314354;exitX=0;exitY=0.5;exitDx=0;exitDy=0;exitPerimeter=0;" parent="1" source="6GM8IYFVtitLIUlGIT6I-57" target="6GM8IYFVtitLIUlGIT6I-60" edge="1">
          <mxGeometry relative="1" as="geometry">
            <mxPoint x="3556" y="828" as="sourcePoint" />
            <mxPoint x="3290" y="730" as="targetPoint" />
          </mxGeometry>
        </mxCell>
        <mxCell id="6GM8IYFVtitLIUlGIT6I-92" value="" style="shape=mxgraph.cisco.routers.router;sketch=0;html=1;pointerEvents=1;dashed=0;fillColor=#647687;strokeWidth=2;verticalLabelPosition=bottom;verticalAlign=top;align=center;outlineConnect=0;strokeColor=#314354;fontColor=#ffffff;" parent="1" vertex="1">
          <mxGeometry x="1470" y="1190" width="130" height="80" as="geometry" />
        </mxCell>
        <mxCell id="6GM8IYFVtitLIUlGIT6I-93" style="edgeStyle=none;html=1;labelBackgroundColor=none;startFill=0;endArrow=none;endFill=0;strokeWidth=2;fontFamily=Verdana;fontSize=12;entryX=1;entryY=0.5;entryDx=0;entryDy=0;entryPerimeter=0;fillColor=#1ba1e2;strokeColor=#006EAF;exitX=0.25;exitY=0.25;exitDx=0;exitDy=0;exitPerimeter=0;" parent="1" source="6GM8IYFVtitLIUlGIT6I-63" target="6GM8IYFVtitLIUlGIT6I-14" edge="1">
          <mxGeometry relative="1" as="geometry">
            <mxPoint x="970" y="1106" as="sourcePoint" />
            <mxPoint x="220" y="1180" as="targetPoint" />
          </mxGeometry>
        </mxCell>
        <mxCell id="6GM8IYFVtitLIUlGIT6I-94" style="edgeStyle=none;html=1;labelBackgroundColor=none;startFill=0;endArrow=none;endFill=0;strokeWidth=2;fontFamily=Verdana;fontSize=12;entryX=1;entryY=0.5;entryDx=0;entryDy=0;entryPerimeter=0;fillColor=#647687;strokeColor=#314354;exitX=0;exitY=0.5;exitDx=0;exitDy=0;exitPerimeter=0;" parent="1" source="6GM8IYFVtitLIUlGIT6I-14" target="6GM8IYFVtitLIUlGIT6I-54" edge="1">
          <mxGeometry relative="1" as="geometry">
            <mxPoint x="90" y="1180" as="sourcePoint" />
            <mxPoint x="-96" y="1092" as="targetPoint" />
          </mxGeometry>
        </mxCell>
        <mxCell id="6GM8IYFVtitLIUlGIT6I-95" style="edgeStyle=none;html=1;labelBackgroundColor=none;startFill=0;endArrow=none;endFill=0;strokeWidth=2;fontFamily=Verdana;fontSize=12;entryX=1;entryY=0.5;entryDx=0;entryDy=0;entryPerimeter=0;fillColor=#647687;strokeColor=#314354;exitX=0;exitY=0.5;exitDx=0;exitDy=0;exitPerimeter=0;" parent="1" source="6GM8IYFVtitLIUlGIT6I-54" target="6GM8IYFVtitLIUlGIT6I-85" edge="1">
          <mxGeometry relative="1" as="geometry">
            <mxPoint x="100" y="1190" as="sourcePoint" />
            <mxPoint x="-86" y="1102" as="targetPoint" />
          </mxGeometry>
        </mxCell>
        <mxCell id="6GM8IYFVtitLIUlGIT6I-96" style="edgeStyle=none;html=1;labelBackgroundColor=none;startFill=0;endArrow=none;endFill=0;strokeWidth=2;fontFamily=Verdana;fontSize=12;entryX=1;entryY=0.5;entryDx=0;entryDy=0;entryPerimeter=0;fillColor=#647687;strokeColor=#314354;exitX=0;exitY=0.5;exitDx=0;exitDy=0;exitPerimeter=0;" parent="1" edge="1">
          <mxGeometry relative="1" as="geometry">
            <mxPoint x="-420" y="1040" as="sourcePoint" />
            <mxPoint x="-550" y="1040" as="targetPoint" />
          </mxGeometry>
        </mxCell>
        <mxCell id="6GM8IYFVtitLIUlGIT6I-97" style="edgeStyle=none;html=1;labelBackgroundColor=none;startFill=0;endArrow=none;endFill=0;strokeWidth=2;fontFamily=Verdana;fontSize=12;entryX=0.5;entryY=1;entryDx=0;entryDy=0;entryPerimeter=0;fillColor=#647687;strokeColor=#314354;exitX=0.5;exitY=0;exitDx=0;exitDy=0;exitPerimeter=0;" parent="1" source="6GM8IYFVtitLIUlGIT6I-86" target="6GM8IYFVtitLIUlGIT6I-83" edge="1">
          <mxGeometry relative="1" as="geometry">
            <mxPoint x="-200" y="1070" as="sourcePoint" />
            <mxPoint x="-330" y="1070" as="targetPoint" />
          </mxGeometry>
        </mxCell>
        <mxCell id="6GM8IYFVtitLIUlGIT6I-100" value="" style="shape=mxgraph.cisco.controllers_and_modules.3174_(desktop)_cluster_controller;sketch=0;html=1;pointerEvents=1;dashed=0;fillColor=#647687;strokeColor=#314354;strokeWidth=2;verticalLabelPosition=bottom;verticalAlign=top;align=center;outlineConnect=0;fontColor=#ffffff;" parent="1" vertex="1">
          <mxGeometry y="-550" width="150" height="60" as="geometry" />
        </mxCell>
        <mxCell id="6GM8IYFVtitLIUlGIT6I-101" value="" style="shape=mxgraph.cisco.security.firewall;sketch=0;html=1;pointerEvents=1;dashed=0;fillColor=#647687;strokeColor=#314354;strokeWidth=2;verticalLabelPosition=bottom;verticalAlign=top;align=center;outlineConnect=0;fontColor=#ffffff;" parent="1" vertex="1">
          <mxGeometry x="290" y="-410" width="70" height="154" as="geometry" />
        </mxCell>
        <mxCell id="6GM8IYFVtitLIUlGIT6I-102" value="" style="shape=mxgraph.cisco.switches.workgroup_switch;sketch=0;html=1;pointerEvents=1;dashed=0;fillColor=#647687;strokeColor=#314354;strokeWidth=2;verticalLabelPosition=bottom;verticalAlign=top;align=center;outlineConnect=0;fontColor=#ffffff;" parent="1" vertex="1">
          <mxGeometry x="-10" y="-373" width="170" height="80" as="geometry" />
        </mxCell>
        <mxCell id="6GM8IYFVtitLIUlGIT6I-103" style="edgeStyle=none;html=1;labelBackgroundColor=none;startFill=0;endArrow=none;endFill=0;strokeWidth=2;fontFamily=Verdana;fontSize=12;fillColor=#647687;strokeColor=#314354;exitX=0;exitY=0.5;exitDx=0;exitDy=0;exitPerimeter=0;entryX=0.98;entryY=0.5;entryDx=0;entryDy=0;entryPerimeter=0;" parent="1" source="6GM8IYFVtitLIUlGIT6I-101" target="6GM8IYFVtitLIUlGIT6I-102" edge="1">
          <mxGeometry relative="1" as="geometry">
            <mxPoint x="300" y="-378.5" as="sourcePoint" />
            <mxPoint x="240" y="-50" as="targetPoint" />
          </mxGeometry>
        </mxCell>
        <mxCell id="6GM8IYFVtitLIUlGIT6I-104" style="edgeStyle=none;html=1;labelBackgroundColor=none;startFill=0;endArrow=none;endFill=0;strokeWidth=2;fontFamily=Verdana;fontSize=12;entryX=0.5;entryY=1;entryDx=0;entryDy=0;entryPerimeter=0;fillColor=#647687;strokeColor=#314354;exitX=0.5;exitY=0;exitDx=0;exitDy=0;exitPerimeter=0;" parent="1" source="6GM8IYFVtitLIUlGIT6I-102" target="6GM8IYFVtitLIUlGIT6I-100" edge="1">
          <mxGeometry relative="1" as="geometry">
            <mxPoint x="520" y="-348.5" as="sourcePoint" />
            <mxPoint x="390" y="-348.5" as="targetPoint" />
          </mxGeometry>
        </mxCell>
        <mxCell id="6GM8IYFVtitLIUlGIT6I-105" style="edgeStyle=none;html=1;labelBackgroundColor=none;startFill=0;endArrow=none;endFill=0;strokeWidth=2;fontFamily=Verdana;fontSize=12;fillColor=#647687;strokeColor=#314354;exitX=1;exitY=0.5;exitDx=0;exitDy=0;exitPerimeter=0;entryX=0;entryY=0.5;entryDx=0;entryDy=0;entryPerimeter=0;" parent="1" source="6GM8IYFVtitLIUlGIT6I-101" target="6GM8IYFVtitLIUlGIT6I-58" edge="1">
          <mxGeometry relative="1" as="geometry">
            <mxPoint x="290" y="-373" as="sourcePoint" />
            <mxPoint x="177" y="-370" as="targetPoint" />
          </mxGeometry>
        </mxCell>
        <mxCell id="6GM8IYFVtitLIUlGIT6I-106" value="" style="shape=mxgraph.cisco.security.firewall;sketch=0;html=1;pointerEvents=1;dashed=0;fillColor=#647687;strokeColor=#314354;strokeWidth=2;verticalLabelPosition=bottom;verticalAlign=top;align=center;outlineConnect=0;fontColor=#ffffff;" parent="1" vertex="1">
          <mxGeometry x="3780" y="773" width="70" height="154" as="geometry" />
        </mxCell>
        <mxCell id="6GM8IYFVtitLIUlGIT6I-107" value="" style="shape=mxgraph.cisco.switches.workgroup_switch;sketch=0;html=1;pointerEvents=1;dashed=0;fillColor=#647687;strokeColor=#314354;strokeWidth=2;verticalLabelPosition=bottom;verticalAlign=top;align=center;outlineConnect=0;fontColor=#ffffff;" parent="1" vertex="1">
          <mxGeometry x="3980" y="810" width="170" height="80" as="geometry" />
        </mxCell>
        <mxCell id="6GM8IYFVtitLIUlGIT6I-108" value="" style="shape=mxgraph.cisco.controllers_and_modules.3174_(desktop)_cluster_controller;sketch=0;html=1;pointerEvents=1;dashed=0;fillColor=#647687;strokeColor=#314354;strokeWidth=2;verticalLabelPosition=bottom;verticalAlign=top;align=center;outlineConnect=0;fontColor=#ffffff;" parent="1" vertex="1">
          <mxGeometry x="3990" y="1000" width="150" height="60" as="geometry" />
        </mxCell>
        <mxCell id="6GM8IYFVtitLIUlGIT6I-109" style="edgeStyle=none;html=1;labelBackgroundColor=none;startFill=0;endArrow=none;endFill=0;strokeWidth=2;fontFamily=Verdana;fontSize=12;entryX=1;entryY=0.5;entryDx=0;entryDy=0;entryPerimeter=0;fillColor=#647687;strokeColor=#314354;exitX=0;exitY=0.5;exitDx=0;exitDy=0;exitPerimeter=0;" parent="1" source="6GM8IYFVtitLIUlGIT6I-106" target="6GM8IYFVtitLIUlGIT6I-59" edge="1">
          <mxGeometry relative="1" as="geometry">
            <mxPoint x="3556" y="892" as="sourcePoint" />
            <mxPoint x="3340" y="930" as="targetPoint" />
          </mxGeometry>
        </mxCell>
        <mxCell id="6GM8IYFVtitLIUlGIT6I-110" style="edgeStyle=none;html=1;labelBackgroundColor=none;startFill=0;endArrow=none;endFill=0;strokeWidth=2;fontFamily=Verdana;fontSize=12;entryX=1;entryY=0.5;entryDx=0;entryDy=0;entryPerimeter=0;fillColor=#647687;strokeColor=#314354;exitX=0;exitY=0.5;exitDx=0;exitDy=0;exitPerimeter=0;" parent="1" source="6GM8IYFVtitLIUlGIT6I-107" target="6GM8IYFVtitLIUlGIT6I-106" edge="1">
          <mxGeometry relative="1" as="geometry">
            <mxPoint x="3790" y="860" as="sourcePoint" />
            <mxPoint x="3670" y="860" as="targetPoint" />
          </mxGeometry>
        </mxCell>
        <mxCell id="6GM8IYFVtitLIUlGIT6I-111" style="edgeStyle=none;html=1;labelBackgroundColor=none;startFill=0;endArrow=none;endFill=0;strokeWidth=2;fontFamily=Verdana;fontSize=12;fillColor=#647687;strokeColor=#314354;exitX=0.5;exitY=0.98;exitDx=0;exitDy=0;exitPerimeter=0;" parent="1" source="6GM8IYFVtitLIUlGIT6I-107" target="6GM8IYFVtitLIUlGIT6I-108" edge="1">
          <mxGeometry relative="1" as="geometry">
            <mxPoint x="3990" y="860" as="sourcePoint" />
            <mxPoint x="3860" y="860" as="targetPoint" />
          </mxGeometry>
        </mxCell>
        <mxCell id="6GM8IYFVtitLIUlGIT6I-112" style="edgeStyle=none;html=1;labelBackgroundColor=none;startFill=0;endArrow=none;endFill=0;strokeWidth=2;fontFamily=Verdana;fontSize=12;entryX=0.5;entryY=1;entryDx=0;entryDy=0;entryPerimeter=0;fillColor=#647687;strokeColor=#314354;exitX=0.88;exitY=0.1;exitDx=0;exitDy=0;exitPerimeter=0;" parent="1" source="6GM8IYFVtitLIUlGIT6I-92" target="6GM8IYFVtitLIUlGIT6I-57" edge="1">
          <mxGeometry relative="1" as="geometry">
            <mxPoint x="1914" y="958" as="sourcePoint" />
            <mxPoint x="2045" y="690" as="targetPoint" />
          </mxGeometry>
        </mxCell>
        <mxCell id="6GM8IYFVtitLIUlGIT6I-113" style="edgeStyle=none;html=1;labelBackgroundColor=none;startFill=0;endArrow=none;endFill=0;strokeWidth=2;fontFamily=Verdana;fontSize=12;entryX=0.5;entryY=1;entryDx=0;entryDy=0;entryPerimeter=0;fillColor=#647687;strokeColor=#314354;" parent="1" source="6GM8IYFVtitLIUlGIT6I-92" target="6GM8IYFVtitLIUlGIT6I-60" edge="1">
          <mxGeometry relative="1" as="geometry">
            <mxPoint x="1924" y="968" as="sourcePoint" />
            <mxPoint x="2055" y="700" as="targetPoint" />
          </mxGeometry>
        </mxCell>
        <mxCell id="6GM8IYFVtitLIUlGIT6I-114" value="" style="shape=mxgraph.cisco.security.firewall;sketch=0;html=1;pointerEvents=1;dashed=0;fillColor=#647687;strokeColor=#314354;strokeWidth=2;verticalLabelPosition=bottom;verticalAlign=top;align=center;outlineConnect=0;fontColor=#ffffff;" parent="1" vertex="1">
          <mxGeometry x="1500" y="1343" width="70" height="154" as="geometry" />
        </mxCell>
        <mxCell id="6GM8IYFVtitLIUlGIT6I-115" value="" style="shape=mxgraph.cisco.switches.workgroup_switch;sketch=0;html=1;pointerEvents=1;dashed=0;fillColor=#647687;strokeColor=#314354;strokeWidth=2;verticalLabelPosition=bottom;verticalAlign=top;align=center;outlineConnect=0;fontColor=#ffffff;" parent="1" vertex="1">
          <mxGeometry x="1660" y="1380" width="170" height="80" as="geometry" />
        </mxCell>
        <mxCell id="6GM8IYFVtitLIUlGIT6I-116" style="edgeStyle=none;html=1;labelBackgroundColor=none;startFill=0;endArrow=none;endFill=0;strokeWidth=2;fontFamily=Verdana;fontSize=12;entryX=0.5;entryY=1;entryDx=0;entryDy=0;entryPerimeter=0;fillColor=#647687;strokeColor=#314354;exitX=0.5;exitY=0;exitDx=0;exitDy=0;exitPerimeter=0;" parent="1" source="6GM8IYFVtitLIUlGIT6I-114" target="6GM8IYFVtitLIUlGIT6I-92" edge="1">
          <mxGeometry relative="1" as="geometry">
            <mxPoint x="1594" y="1228" as="sourcePoint" />
            <mxPoint x="1865" y="1030" as="targetPoint" />
          </mxGeometry>
        </mxCell>
        <mxCell id="6GM8IYFVtitLIUlGIT6I-117" style="edgeStyle=none;html=1;labelBackgroundColor=none;startFill=0;endArrow=none;endFill=0;strokeWidth=2;fontFamily=Verdana;fontSize=12;entryX=0;entryY=0.5;entryDx=0;entryDy=0;entryPerimeter=0;fillColor=#647687;strokeColor=#314354;exitX=1;exitY=0.5;exitDx=0;exitDy=0;exitPerimeter=0;" parent="1" source="6GM8IYFVtitLIUlGIT6I-114" target="6GM8IYFVtitLIUlGIT6I-115" edge="1">
          <mxGeometry relative="1" as="geometry">
            <mxPoint x="1545" y="1353" as="sourcePoint" />
            <mxPoint x="1545" y="1300" as="targetPoint" />
          </mxGeometry>
        </mxCell>
        <mxCell id="6GM8IYFVtitLIUlGIT6I-118" value="" style="shape=mxgraph.cisco.servers.storage_server;sketch=0;html=1;pointerEvents=1;dashed=0;fillColor=#647687;strokeColor=#314354;strokeWidth=2;verticalLabelPosition=bottom;verticalAlign=top;align=center;outlineConnect=0;fontColor=#ffffff;" parent="1" vertex="1">
          <mxGeometry x="1946" y="1333.5" width="160" height="173" as="geometry" />
        </mxCell>
        <mxCell id="6GM8IYFVtitLIUlGIT6I-119" style="edgeStyle=none;html=1;labelBackgroundColor=none;startFill=0;endArrow=none;endFill=0;strokeWidth=2;fontFamily=Verdana;fontSize=12;entryX=0.22;entryY=0.5;entryDx=0;entryDy=0;entryPerimeter=0;fillColor=#647687;strokeColor=#314354;exitX=0.98;exitY=0.5;exitDx=0;exitDy=0;exitPerimeter=0;" parent="1" source="6GM8IYFVtitLIUlGIT6I-115" target="6GM8IYFVtitLIUlGIT6I-118" edge="1">
          <mxGeometry relative="1" as="geometry">
            <mxPoint x="1580" y="1430" as="sourcePoint" />
            <mxPoint x="1670" y="1430" as="targetPoint" />
          </mxGeometry>
        </mxCell>
        <mxCell id="ATQwv6EJ9Ys_tD6lqm0D-2" style="edgeStyle=none;html=1;labelBackgroundColor=none;startFill=0;endArrow=none;endFill=0;strokeWidth=2;fontFamily=Verdana;fontSize=12;entryX=1;entryY=0.5;entryDx=0;entryDy=0;entryPerimeter=0;fillColor=#647687;strokeColor=#314354;exitX=0;exitY=0.5;exitDx=0;exitDy=0;exitPerimeter=0;" parent="1" source="6GM8IYFVtitLIUlGIT6I-60" target="6GM8IYFVtitLIUlGIT6I-36" edge="1">
          <mxGeometry relative="1" as="geometry">
            <mxPoint x="1810" y="770" as="sourcePoint" />
            <mxPoint x="1520" y="760" as="targetPoint" />
          </mxGeometry>
        </mxCell>
        <mxCell id="ATQwv6EJ9Ys_tD6lqm0D-3" style="edgeStyle=none;html=1;labelBackgroundColor=none;startFill=0;endArrow=none;endFill=0;strokeWidth=2;fontFamily=Verdana;fontSize=12;entryX=0.5;entryY=1;entryDx=0;entryDy=0;entryPerimeter=0;fillColor=#647687;strokeColor=#314354;exitX=0.88;exitY=0.1;exitDx=0;exitDy=0;exitPerimeter=0;" parent="1" source="6GM8IYFVtitLIUlGIT6I-57" target="6GM8IYFVtitLIUlGIT6I-11" edge="1">
          <mxGeometry relative="1" as="geometry">
            <mxPoint x="1810" y="770" as="sourcePoint" />
            <mxPoint x="1520" y="760" as="targetPoint" />
          </mxGeometry>
        </mxCell>
        <mxCell id="ATQwv6EJ9Ys_tD6lqm0D-4" style="edgeStyle=none;html=1;labelBackgroundColor=none;startFill=0;endArrow=none;endFill=0;strokeWidth=2;fontFamily=Verdana;fontSize=12;entryX=0.88;entryY=0.1;entryDx=0;entryDy=0;entryPerimeter=0;fillColor=#647687;strokeColor=#314354;exitX=0.12;exitY=0.9;exitDx=0;exitDy=0;exitPerimeter=0;" parent="1" source="6GM8IYFVtitLIUlGIT6I-11" target="6GM8IYFVtitLIUlGIT6I-60" edge="1">
          <mxGeometry relative="1" as="geometry">
            <mxPoint x="1810" y="770" as="sourcePoint" />
            <mxPoint x="1520" y="760" as="targetPoint" />
          </mxGeometry>
        </mxCell>
        <mxCell id="ATQwv6EJ9Ys_tD6lqm0D-5" style="edgeStyle=none;html=1;labelBackgroundColor=none;startFill=0;endArrow=none;endFill=0;strokeWidth=2;fontFamily=Verdana;fontSize=12;entryX=1;entryY=0.5;entryDx=0;entryDy=0;entryPerimeter=0;fillColor=#647687;strokeColor=#314354;exitX=0;exitY=0.5;exitDx=0;exitDy=0;exitPerimeter=0;" parent="1" source="6GM8IYFVtitLIUlGIT6I-57" target="6GM8IYFVtitLIUlGIT6I-36" edge="1">
          <mxGeometry relative="1" as="geometry">
            <mxPoint x="1826" y="740" as="sourcePoint" />
            <mxPoint x="1520" y="800" as="targetPoint" />
          </mxGeometry>
        </mxCell>
      </root>
    </mxGraphModel>
  </diagram>
</mxfile>
